<?xml version="1.0" ?><svg enable-background="new 0 0 512 512" id="Layer_1" version="1.1" viewBox="0 0 512 512" xml:space="preserve" xmlns="http://www.w3.org/2000/svg" xmlns:xlink="http://www.w3.org/1999/xlink"><polygon fill="#FFE86D" points="309.8,125.2 256,62.3 202,125.4   220.7,170.7 291.7,170.7 " stroke="#FFFFFF" stroke-miterlimit="10" stroke-width="10"/><polygon fill="#FFE86D" points="201.5,125.5 119,119 125.5,201.9   170.7,220.7 221,170.5 " stroke="#FFFFFF" stroke-miterlimit="10" stroke-width="10"/><polygon fill="#FFE86D" points="125.2,202.2 62.3,256 125.4,310   170.7,291.3 170.7,220.3 " stroke="#FFFFFF" stroke-miterlimit="10" stroke-width="10"/><polygon fill="#FFE86D" points="125.5,310.5 119,393 201.9,386.5   220.7,341.3 170.5,291 " stroke="#FFFFFF" stroke-miterlimit="10" stroke-width="10"/><polygon fill="#FFCB08" points="202.2,386.8 256,449.7 310,386.6   291.3,341.3 220.3,341.3 " stroke="#FFFFFF" stroke-miterlimit="10" stroke-width="10"/><polygon fill="#FFCB08" points="310.5,386.5 393,393 386.5,310.1   341.3,291.3 291,341.5 " stroke="#FFFFFF" stroke-miterlimit="10" stroke-width="10"/><polygon fill="#FFCB08" points="386.8,309.8 449.7,256 386.6,202   341.3,220.7 341.3,291.7 " stroke="#FFFFFF" stroke-miterlimit="10" stroke-width="10"/><polygon fill="#FFCB08" points="386.5,201.5 393,119 310.1,125.5   291.3,170.7 341.5,221 " stroke="#FFFFFF" stroke-miterlimit="10" stroke-width="10"/><linearGradient gradientUnits="userSpaceOnUse" id="SVGID_1_" x1="255.8762" x2="255.8762" y1="170.7474" y2="62.2816"><stop offset="0" style="stop-color:#FFFFFF;stop-opacity:0"/><stop offset="1" style="stop-color:#FFFFFF;stop-opacity:0.5"/></linearGradient><polygon fill="url(#SVGID_1_)" points="309.8,125.2 256,62.3 202,125.4 220.7,170.7 291.7,170.7 "/><linearGradient gradientUnits="userSpaceOnUse" id="SVGID_2_" x1="169.9996" x2="169.9996" y1="220.6872" y2="119.0204"><stop offset="0" style="stop-color:#FFFFFF;stop-opacity:0"/><stop offset="1" style="stop-color:#FFFFFF;stop-opacity:0.5"/></linearGradient><polygon fill="url(#SVGID_2_)" points="201.5,125.5 119,119 125.5,201.9 170.7,220.7 221,170.5 "/><linearGradient gradientUnits="userSpaceOnUse" id="SVGID_3_" x1="116.5145" x2="116.5145" y1="310.0182" y2="202.2294"><stop offset="0" style="stop-color:#FFFFFF;stop-opacity:0"/><stop offset="1" style="stop-color:#FFFFFF;stop-opacity:0.5"/></linearGradient><polygon fill="url(#SVGID_3_)" points="125.2,202.2 62.3,256 125.4,310 170.7,291.3 170.7,220.3 "/><linearGradient gradientUnits="userSpaceOnUse" id="SVGID_4_" x1="169.8539" x2="169.8539" y1="392.9797" y2="291.0213"><stop offset="0" style="stop-color:#FFFFFF;stop-opacity:0"/><stop offset="1" style="stop-color:#FFFFFF;stop-opacity:0.5"/></linearGradient><polygon fill="url(#SVGID_4_)" points="125.5,310.5 119,393 201.9,386.5 220.7,341.3 170.5,291 "/><linearGradient gradientUnits="userSpaceOnUse" id="SVGID_5_" x1="256.1238" x2="256.1238" y1="449.7184" y2="341.2526"><stop offset="0" style="stop-color:#FFFFFF;stop-opacity:0"/><stop offset="1" style="stop-color:#FFFFFF;stop-opacity:0.5"/></linearGradient><polygon fill="url(#SVGID_5_)" points="202.2,386.8 256,449.7 310,386.6 291.3,341.3 220.3,341.3 "/><linearGradient gradientUnits="userSpaceOnUse" id="SVGID_6_" x1="342.0005" x2="342.0005" y1="392.9796" y2="291.3128"><stop offset="0" style="stop-color:#FFFFFF;stop-opacity:0"/><stop offset="1" style="stop-color:#FFFFFF;stop-opacity:0.5"/></linearGradient><polygon fill="url(#SVGID_6_)" points="310.5,386.5 393,393 386.5,310.1 341.3,291.3 291,341.5 "/><linearGradient gradientUnits="userSpaceOnUse" id="SVGID_7_" x1="395.4856" x2="395.4856" y1="309.7706" y2="201.9818"><stop offset="0" style="stop-color:#FFFFFF;stop-opacity:0"/><stop offset="1" style="stop-color:#FFFFFF;stop-opacity:0.5"/></linearGradient><polygon fill="url(#SVGID_7_)" points="386.8,309.8 449.7,256 386.6,202 341.3,220.7 341.3,291.7 "/><linearGradient gradientUnits="userSpaceOnUse" id="SVGID_8_" x1="342.1462" x2="342.1462" y1="220.9787" y2="119.0203"><stop offset="0" style="stop-color:#FFFFFF;stop-opacity:0"/><stop offset="1" style="stop-color:#FFFFFF;stop-opacity:0.5"/></linearGradient><polygon fill="url(#SVGID_8_)" points="386.5,201.5 393,119 310.1,125.5 291.3,170.7 341.5,221 "/><polygon fill="#FFCB08" points="232.8,312 200,279.2 200,232.8   232.8,200 279.2,200 312,232.8 312,279.2 279.2,312 " stroke="#FFFFFF" stroke-miterlimit="10" stroke-width="10"/><polygon fill="#FFE86D" points="208.6,141.5 232.8,200 200,232.8   141.5,208.6 " stroke="#FFFFFF" stroke-miterlimit="10" stroke-width="10"/><polygon fill="#FFCB08" points="141.5,208.6 200,232.8 200,279.2   141.5,303.4 " stroke="#FFFFFF" stroke-miterlimit="10" stroke-width="10"/><polygon fill="#C8A300" points="141.5,303.4 200,279.2 232.8,312   208.6,370.5 " stroke="#FFFFFF" stroke-miterlimit="10" stroke-width="10"/><polygon fill="#9C6600" points="208.6,370.5 232.8,312 279.2,312   303.4,370.5 " stroke="#FFFFFF" stroke-miterlimit="10" stroke-width="10"/><polygon fill="#9C6600" points="303.4,370.5 279.2,312 312,279.2   370.5,303.4 " stroke="#FFFFFF" stroke-miterlimit="10" stroke-width="10"/><polygon fill="#9C6600" points="370.5,303.4 312,279.2 312,232.8   370.5,208.6 " stroke="#FFFFFF" stroke-miterlimit="10" stroke-width="10"/><polygon fill="#C8A300" points="370.5,208.6 312,232.8 279.2,200   303.4,141.5 " stroke="#FFFFFF" stroke-miterlimit="10" stroke-width="10"/><polygon fill="#FFCB08" points="303.4,141.5 279.2,200 232.8,200   208.6,141.5 " stroke="#FFFFFF" stroke-miterlimit="10" stroke-width="10"/><linearGradient gradientUnits="userSpaceOnUse" id="SVGID_9_" x1="256" x2="256" y1="312.0188" y2="199.9812"><stop offset="0" style="stop-color:#FFFFFF;stop-opacity:0"/><stop offset="1" style="stop-color:#FFFFFF;stop-opacity:0.5"/></linearGradient><polygon fill="url(#SVGID_9_)" points="232.8,312 200,279.2 200,232.8 232.8,200 279.2,200 312,232.8 312,279.2 279.2,312 "/><linearGradient gradientUnits="userSpaceOnUse" id="SVGID_10_" x1="187.1549" x2="187.1549" y1="232.7962" y2="141.5135"><stop offset="0" style="stop-color:#FFFFFF;stop-opacity:0"/><stop offset="1" style="stop-color:#FFFFFF;stop-opacity:0.5"/></linearGradient><polygon fill="url(#SVGID_10_)" points="208.6,141.5 232.8,200 200,232.8 141.5,208.6 "/><linearGradient gradientUnits="userSpaceOnUse" id="SVGID_11_" x1="170.7474" x2="170.7474" y1="303.4218" y2="208.5782"><stop offset="0" style="stop-color:#FFFFFF;stop-opacity:0"/><stop offset="1" style="stop-color:#FFFFFF;stop-opacity:0.5"/></linearGradient><polygon fill="url(#SVGID_11_)" points="141.5,208.6 200,232.8 200,279.2 141.5,303.4 "/><linearGradient gradientUnits="userSpaceOnUse" id="SVGID_12_" x1="187.1549" x2="187.1549" y1="370.4865" y2="279.2037"><stop offset="0" style="stop-color:#FFFFFF;stop-opacity:0"/><stop offset="1" style="stop-color:#FFFFFF;stop-opacity:0.5"/></linearGradient><polygon fill="url(#SVGID_12_)" points="141.5,303.4 200,279.2 232.8,312 208.6,370.5 "/><linearGradient gradientUnits="userSpaceOnUse" id="SVGID_13_" x1="256" x2="256" y1="370.4865" y2="312.0188"><stop offset="0" style="stop-color:#FFFFFF;stop-opacity:0"/><stop offset="1" style="stop-color:#FFFFFF;stop-opacity:0.5"/></linearGradient><polygon fill="url(#SVGID_13_)" points="208.6,370.5 232.8,312 279.2,312 303.4,370.5 "/><linearGradient gradientUnits="userSpaceOnUse" id="SVGID_14_" x1="324.8451" x2="324.8451" y1="370.4865" y2="279.2037"><stop offset="0" style="stop-color:#FFFFFF;stop-opacity:0"/><stop offset="1" style="stop-color:#FFFFFF;stop-opacity:0.5"/></linearGradient><polygon fill="url(#SVGID_14_)" points="303.4,370.5 279.2,312 312,279.2 370.5,303.4 "/><linearGradient gradientUnits="userSpaceOnUse" id="SVGID_15_" x1="341.2527" x2="341.2527" y1="303.4218" y2="208.5782"><stop offset="0" style="stop-color:#FFFFFF;stop-opacity:0"/><stop offset="1" style="stop-color:#FFFFFF;stop-opacity:0.5"/></linearGradient><polygon fill="url(#SVGID_15_)" points="370.5,303.4 312,279.2 312,232.8 370.5,208.6 "/><linearGradient gradientUnits="userSpaceOnUse" id="SVGID_16_" x1="324.8451" x2="324.8451" y1="232.7962" y2="141.5135"><stop offset="0" style="stop-color:#FFFFFF;stop-opacity:0"/><stop offset="1" style="stop-color:#FFFFFF;stop-opacity:0.5"/></linearGradient><polygon fill="url(#SVGID_16_)" points="370.5,208.6 312,232.8 279.2,200 303.4,141.5 "/><linearGradient gradientUnits="userSpaceOnUse" id="SVGID_17_" x1="256" x2="256" y1="199.9812" y2="141.5135"><stop offset="0" style="stop-color:#FFFFFF;stop-opacity:0"/><stop offset="1" style="stop-color:#FFFFFF;stop-opacity:0.5"/></linearGradient><polygon fill="url(#SVGID_17_)" points="303.4,141.5 279.2,200 232.8,200 208.6,141.5 "/></svg>